<?xml version="1.0" standalone="no"?>
<!DOCTYPE svg PUBLIC "-//W3C//DTD SVG 20010904//EN"
 "http://www.w3.org/TR/2001/REC-SVG-20010904/DTD/svg10.dtd">
<svg version="1.0"
    xmlns="http://www.w3.org/2000/svg" width="60" height="60" viewBox="0 0 376.000000 376.000000" preserveAspectRatio="xMidYMid meet">

    <g transform="translate(0.000000,376.000000) scale(0.100000,-0.100000)" fill="#d59a16" stroke="none">
        <path d="M2954 3169 c-16 -18 -20 -40 -23 -145 l-3 -124 76 0 76 0 0 125 c0
112 -2 127 -20 145 -27 27 -81 26 -106 -1z"/>
        <path d="M740 3020 c-18 -18 -20 -33 -20 -145 l0 -125 390 0 390 0 0 125 c0
181 38 165 -390 165 -337 0 -351 -1 -370 -20z"/>
        <path d="M2841 2714 c-17 -22 -21 -41 -21 -110 l0 -84 185 0 185 0 0 90 c0
130 0 130 -184 130 -144 0 -145 0 -165 -26z"/>
        <path d="M590 2570 c-18 -18 -20 -33 -20 -185 l0 -165 438 0 c378 0 441 -2
460 -15 12 -9 47 -58 78 -110 31 -52 58 -95 60 -95 2 0 4 133 4 295 l0 295
-500 0 c-487 0 -501 -1 -520 -20z"/>
        <path d="M1770 2215 l0 -375 260 0 260 0 0 355 c0 342 -1 356 -20 375 -19 19
-33 20 -260 20 l-240 0 0 -375z"/>
        <path d="M2820 2105 l0 -265 185 0 185 0 0 265 0 265 -185 0 -185 0 0 -265z"/>
        <path d="M383 2060 c-42 -17 -45 -39 -41 -288 3 -235 3 -238 31 -296 44 -94
83 -133 265 -261 l171 -120 -290 -5 c-291 -5 -291 -5 -310 -29 -26 -32 -24
-67 6 -96 l24 -25 1641 0 1641 0 24 25 c30 29 32 64 6 96 l-19 24 -297 5 -296
5 176 124 c97 69 189 140 206 158 43 49 77 123 88 189 9 62 7 79 -17 107 -14
16 -69 17 -887 17 -827 0 -874 1 -895 18 -12 10 -68 94 -124 188 l-102 169
-490 2 c-269 1 -499 -2 -511 -7z m316 -246 c12 -15 21 -35 21 -46 0 -26 -53
-78 -80 -78 -31 0 -70 44 -70 80 0 67 88 97 129 44z m521 6 c30 -30 27 -83 -6
-109 -23 -18 -41 -21 -126 -21 -92 0 -101 2 -123 25 -31 30 -32 71 -3 102 20
21 30 23 130 23 95 0 110 -2 128 -20z m444 -371 c20 -16 26 -29 26 -60 0 -34
-5 -42 -32 -59 -54 -33 -108 -3 -108 60 0 36 17 61 50 73 26 10 37 7 64 -14z
m381 -4 c35 -34 34 -86 -1 -114 -34 -27 -57 -26 -88 2 -39 33 -43 76 -12 110
31 34 69 35 101 2z m369 3 c37 -34 42 -70 14 -101 -32 -36 -58 -40 -96 -17
-27 17 -32 25 -32 59 0 31 6 44 26 60 34 27 57 26 88 -1z m380 1 c69 -54 -12
-174 -83 -122 -18 14 -27 31 -29 57 -3 40 10 63 43 76 31 13 40 12 69 -11z"/>
        <path d="M815 685 c-48 -47 -19 -115 49 -115 38 0 76 36 76 72 0 27 -45 68
-75 68 -14 0 -37 -11 -50 -25z"/>
        <path d="M1190 690 c-11 -11 -20 -33 -20 -50 0 -17 9 -39 20 -50 20 -20 33
-20 690 -20 657 0 670 0 690 20 11 11 20 33 20 50 0 17 -9 39 -20 50 -20 20
-33 20 -690 20 -657 0 -670 0 -690 -20z"/>
        <path d="M2845 685 c-48 -47 -19 -115 49 -115 38 0 76 36 76 72 0 27 -45 68
-75 68 -14 0 -37 -11 -50 -25z"/>
    </g>
</svg>
