<?xml version="1.0" standalone="no"?>
<!DOCTYPE svg PUBLIC "-//W3C//DTD SVG 20010904//EN"
 "http://www.w3.org/TR/2001/REC-SVG-20010904/DTD/svg10.dtd">
<svg version="1.0"
    xmlns="http://www.w3.org/2000/svg" width="60" height="60" viewBox="0 0 200.000000 200.000000" preserveAspectRatio="xMidYMid meet">

    <g transform="translate(0.000000,200.000000) scale(0.100000,-0.100000)" fill="#d59a16" stroke="none">
        <path d="M767 1763 c-4 -3 -7 -34 -7 -67 l0 -61 111 -93 c61 -51 189 -151 285
-224 116 -87 174 -137 174 -149 0 -16 8 -19 60 -19 l60 0 0 -111 0 -110 38 3
37 3 3 107 c3 102 4 107 25 110 18 2 22 9 22 38 0 29 -4 36 -22 38 l-23 3 0
215 c0 169 3 214 13 214 24 0 37 -24 37 -67 0 -40 2 -43 28 -43 24 0 34 10 71
75 24 42 40 82 37 90 -8 23 -426 22 -426 0 0 -34 38 -55 100 -55 l60 0 0 -161
c0 -125 -3 -159 -12 -153 -7 4 -155 101 -329 216 -174 114 -320 208 -326 208
-5 0 -13 -3 -16 -7z m113 -99 c0 -2 -18 -4 -40 -4 -38 0 -40 2 -40 30 l0 30
40 -26 c22 -15 40 -28 40 -30z m40 -79 c0 -40 -8 -39 -65 9 l-30 25 48 1 47 0
0 -35z m130 -32 l35 -23 -63 0 -62 0 0 41 0 41 28 -17 c15 -10 43 -29 62 -42z
m80 -113 c0 -39 -3 -49 -13 -43 -34 21 -106 79 -107 86 0 4 27 7 60 7 l60 0 0
-50z m120 -16 c39 -26 70 -49 70 -50 0 -2 -34 -4 -75 -4 l-75 0 0 50 c0 28 2
50 5 50 3 0 37 -21 75 -46z m120 -144 c0 -39 -3 -50 -16 -50 -14 0 -144 88
-144 97 0 2 36 3 80 3 l80 0 0 -50z m68 18 c7 -7 12 -25 12 -40 0 -21 -5 -28
-20 -28 -17 0 -20 7 -20 40 0 41 7 49 28 28z"/>
        <path d="M757 1403 c-3 -76 -5 -142 -6 -148 0 -5 2 -29 5 -52 5 -33 10 -43 24
-43 46 0 66 -63 30 -95 -17 -15 -24 -16 -45 -7 -14 7 -28 19 -31 27 -8 20 -34
19 -34 0 0 -9 11 -27 25 -40 34 -35 78 -33 116 4 40 40 38 74 -6 118 -37 37
-42 52 -23 71 9 9 9 18 0 37 -7 15 -12 73 -12 133 0 101 -7 132 -31 132 -5 0
-10 -62 -12 -137z"/>
        <path d="M503 933 c-124 -49 -143 -59 -143 -78 0 -28 -17 -43 -58 -51 -51 -10
-55 -21 -50 -161 8 -222 53 -283 261 -352 67 -23 136 -41 154 -41 39 0 224 63
280 96 48 28 95 91 112 149 8 24 11 91 9 169 l-3 129 -47 14 c-40 11 -48 18
-48 38 0 13 -6 27 -12 32 -26 16 -280 113 -296 113 -9 0 -81 -26 -159 -57z m8
-283 c23 -13 25 -52 4 -70 -19 -15 -61 -6 -69 16 -7 18 18 64 35 64 6 0 19 -5
30 -10z m354 -10 c37 -41 -24 -97 -63 -58 -18 18 -15 55 6 67 25 15 37 13 57
-9z"/>
        <path d="M1347 863 c-4 -3 -7 -28 -7 -55 l0 -48 -90 0 -90 0 0 -65 0 -65 295
0 296 0 -3 63 -3 62 -52 3 -53 3 0 39 c0 71 3 70 -149 70 -76 0 -141 -3 -144
-7z"/>
        <path d="M1250 400 l0 -170 250 0 250 0 0 170 0 170 -250 0 -250 0 0 -170z"/>
    </g>
</svg>
